<?xml version="1.0" encoding="UTF-8"?>
<!-- Generated by Pixelmator Pro 3.8 -->
<svg width="1024" height="1024" viewBox="0 0 1024 1024" xmlns="http://www.w3.org/2000/svg">
    <g id="Group">
        <path id="Circle" fill="#000000" fill-rule="evenodd" stroke="#000000" stroke-width="23.151163" stroke-linecap="round" stroke-linejoin="round" d="M 1009 512 C 1009 237.100281 786.149719 14.25 511.25 14.25 C 236.350266 14.25 13.5 237.100281 13.5 512 C 13.5 786.899719 236.350266 1009.75 511.25 1009.75 C 786.149719 1009.75 1009 786.899719 1009 512 Z"/>
        <linearGradient id="linearGradient1" x1="452.828171" y1="393.622447" x2="379.709853" y2="392.534342" gradientUnits="userSpaceOnUse">
            <stop offset="1e-05" stop-color="#f5ff80" stop-opacity="0"/>
            <stop offset="1" stop-color="#f5ff80" stop-opacity="1"/>
        </linearGradient>
        <path id="Path" fill="url(#linearGradient1)" stroke="none" d="M 451.214539 465.855225 L 451.214539 390.613953 C 451.214539 385.983704 448.899414 381.353455 446.58429 379.03833 L 381.761047 314.215088 L 336.616272 363.990112 L 441.954041 469.327942 C 445.426758 472.800598 451.214539 470.485474 451.214539 465.855225 L 451.214539 465.855225 Z"/>
        <linearGradient id="linearGradient2" x1="312.24505" y1="627.77228" x2="221.133649" y2="627.77228" gradientUnits="userSpaceOnUse">
            <stop offset="1e-05" stop-color="#f5ff80" stop-opacity="0"/>
            <stop offset="0.96" stop-color="#f5ff80" stop-opacity="1"/>
        </linearGradient>
        <path id="path1" fill="url(#linearGradient2)" stroke="none" d="M 308.8349 645.434326 L 181.503494 518.102905 L 136.358719 567.87793 L 304.204651 735.723877 C 307.677338 739.196533 313.465118 736.881348 313.465118 732.25116 L 313.465118 657.009888 C 313.465118 652.379639 312.307556 647.749451 308.8349 645.434326 L 308.8349 645.434326 Z"/>
        <path id="path2" fill="#f5ff80" stroke="none" d="M 478.838379 61.709839 C 250.799423 77.91571 69.06279 266.597656 59.802326 494.636658 C 51.699417 718.045349 204.497086 906.727295 411.699982 953.029663 L 136.201157 676.373291 C 132.728485 672.900635 130.413376 667.112793 130.413376 661.325012 L 130.413376 572.192993 C 130.413376 568.720337 135.04361 566.405273 137.358719 568.720337 L 182.503494 518.945313 C 180.18837 516.630249 180.18837 512 182.503494 508.527344 L 226.490692 464.540161 C 228.805817 462.225037 233.43605 462.225037 236.908722 464.540161 L 383.91861 613.865112 C 389.70639 619.652893 393.179047 628.91333 393.179047 637.016235 L 393.179047 790.971497 C 393.179047 812.965088 402.439545 834.95874 417.487793 850.006958 L 529.770935 962.290161 C 558.709839 961.132568 586.491272 957.659912 613.115112 950.714539 L 471.893005 809.492432 C 464.947662 802.547058 460.317413 793.286621 460.317413 782.868652 L 460.317413 633.543579 C 460.317413 609.234863 451.056976 586.08374 433.693604 568.720337 L 284.368591 419.395325 C 282.053497 417.0802 282.053497 412.450012 284.368591 408.977295 L 327.198273 366.147705 C 329.513367 363.832581 334.143616 363.832581 337.616272 366.147705 L 337.616272 366.147705 L 382.761047 316.372681 C 381.603485 315.215088 381.603485 314.057556 380.445953 312.899963 C 367.712799 295.536621 359.609894 266.597656 368.870361 234.186035 C 374.658142 213.349976 386.233734 198.301758 407.069763 178.62323 C 409.384888 177.465698 411.699982 176.308167 414.015106 178.62323 L 468.420349 226.08313 L 478.838379 235.343567 C 483.468597 238.816284 488.098846 241.131348 492.729095 242.28894 L 661.732544 282.803467 C 664.047668 282.803467 665.2052 283.96106 667.520325 285.118652 L 841.154053 458.752319 C 844.62677 462.225037 845.784302 465.697693 845.784302 470.327942 L 845.784302 507.369751 C 845.784302 513.157532 844.62677 518.945313 841.154053 523.575562 L 755.494751 679.845947 C 752.022095 686.79126 743.919189 689.106384 735.816284 686.79126 L 696.45929 668.270386 L 551.764526 668.270386 C 542.504089 668.270386 534.401184 676.373291 534.401184 685.633728 L 534.401184 750.45697 C 534.401184 759.717468 537.87384 767.820313 543.661621 773.608154 L 694.144165 925.24823 C 852.729675 854.637207 962.697693 696.051758 962.697693 512 C 962.697693 252.70697 742.761658 43.188965 478.838379 61.709839 L 478.838379 61.709839 Z"/>
    </g>
</svg>
