<svg id="Layer_1" data-name="Layer 1" xmlns="http://www.w3.org/2000/svg" viewBox="0 0 1440 300"><defs><style>.cls-1{fill:#369;}</style></defs><title>trickster-text</title><path class="cls-1" d="M140.27812,246.53548l-3.25149,34.10338q-13.38972,5.74776-33.66252,5.74776-30.98481,0-46.66849-16.8601Q41.01072,252.66888,41.012,204.57683q0-28.928.38252-65.52446-9.75447,0-26.39447,1.14955l1.33885-37.74363q14.72613,1.14955,27.3508,1.14956.18809-10.15243,1.53011-53.45417L90.5494,44.59751q-2.869,38.12875-2.869,59.01034,16.0662,0,48.00734-1.53274l-1.53012,38.12681q-29.07534-1.14955-47.24228-1.14955-.38569,25.48368-.38253,53.45417,0,34.10532,6.88552,45.69469,6.88551,11.59375,24.29056,11.59132A86.6724,86.6724,0,0,0,140.27812,246.53548Z"/><path class="cls-1" d="M295.20221,100.35078l-11.09333,44.83253a75.67344,75.67344,0,0,0-28.68964-5.74776q-28.11586,0-37.10528,25.29015,0,76.44521,1.14759,117.63749H168.58524q3.25028-57.66675,3.25149-94.26327a377.82121,377.82121,0,0,0-9.56321-86.408l48.7724-5.36458q3.25028,21.07756,3.25149,24.71537h3.06023q17.59509-27.01448,46.85975-27.01447Q277.98843,94.02825,295.20221,100.35078Z"/><path class="cls-1" d="M374.19437,282.36319h-51.4501q2.67648-39.65955,2.6777-91.00621,0-50.96151-6.503-89.28187l55.08412-5.55617q-2.48766,37.17129-2.48644,94.838Q371.51667,240.59858,374.19437,282.36319ZM382.99253,42.49a32.80412,32.80412,0,0,1-8.89379,22.79944Q365.205,75.06063,349.33,75.06064q-13.38972,0-20.94344-8.43005a29.35712,29.35712,0,0,1-7.55494-20.30875A32.13462,32.13462,0,0,1,329.72542,23.714q8.89378-9.57765,24.96-9.5796,13.57855,0,20.94345,8.33425A29.21742,29.21742,0,0,1,382.99253,42.49Z"/><path class="cls-1" d="M562.2067,242.12887l-3.25149,36.59407q-17.407,9.19641-47.24229,9.19641-49.34619,0-75.83581-27.58924-26.49327-27.58926-26.4901-66.29084,0-40.23432,27.73332-70.21847,27.73015-29.9822,75.93144-29.98415,23.52552,0,41.88689,5.36458l-6.503,39.08477q-17.59729-7.27854-39.40045-7.2805-23.14492,0-36.53148,16.38112-13.389,16.38111-13.388,40.33012,0,26.05846,15.87445,44.06616,15.873,18.01159,44.94711,18.00965Q536.95787,249.79255,562.2067,242.12887Z"/><path class="cls-1" d="M767.4333,282.36319H708.90643q0-7.08647-29.07218-47.9938Q650.75963,193.46645,642.729,193.4645h-2.48644q0,39.27831,2.29517,88.89869h-50.685q2.29516-89.47152,2.29517-142.35286,0-73.18571-5.92919-127.0255l54.31906-3.06548q-2.68014,72.80742-2.6777,130.091,0,7.28294.19126,28.35561H642.729q5.353,0,30.411-30.94211,25.05368-30.93966,25.05562-37.07305h56.99677q0,5.94131-26.012,33.14542-26.0139,27.208-42.07815,37.552v2.87388q17.78759,12.45592,49.0593,56.61544Q767.43331,274.70147,767.4333,282.36319Z"/><path class="cls-1" d="M921.7836,230.05857q0,57.4776-84.92135,57.4776-30.98483,0-54.1278-6.70572l6.503-37.74362a139.614,139.614,0,0,0,47.62481,8.62164q22.95171,0,31.84551-3.83184,8.89378-3.82989,8.89379-12.83667,0-13.98377-32.13241-26.63129-28.11585-11.10988-40.93056-21.84149-17.59875-14.94417-17.59632-36.59407,0-25.47928,18.93517-41.00069,18.93518-15.519,55.08412-15.519,33.85379,0,53.17148,5.93935L907.63,137.328a127.3412,127.3412,0,0,0-46.66849-8.43q-30.60424,0-30.60229,15.71054a15.39115,15.39115,0,0,0,6.503,12.93247q6.50055,4.88559,26.58574,12.35768,27.73088,10.15681,40.35677,20.88353Q921.78117,206.112,921.7836,230.05857Z"/><path class="cls-1" d="M1069.43965,246.53548l-3.25149,34.10338q-13.39045,5.74776-33.66252,5.74776-30.98482,0-46.66849-16.8601-15.68564-16.85764-15.68368-64.94969,0-28.928.38253-65.52446-9.75449,0-26.39447,1.14955l1.33885-37.74363q14.7254,1.14955,27.35079,1.14956.18884-10.15243,1.53012-53.45417l45.32964-5.55617q-2.869,38.12875-2.869,59.01034,16.06622,0,48.00735-1.53274l-1.53012,38.12681q-29.07462-1.14955-47.24228-1.14955-.385,25.48368-.38253,53.45417,0,34.10532,6.88551,45.69469,6.88552,11.59375,24.29057,11.59132A86.66952,86.66952,0,0,0,1069.43965,246.53548Z"/><path class="cls-1" d="M1264.338,171.8146q0,9.7712-1.14759,25.48174l-123.17421,2.10751a56.34378,56.34378,0,0,0,18.55264,36.0193q15.873,14.3694,41.69562,14.3694,28.68964,0,61.01331-8.62164l-3.82528,37.16884q-26.39448,9.57765-65.4124,9.5796-49.34619,0-75.645-27.78084-26.30081-27.77839-26.29885-66.86561,0-40.80909,24.96-70.79324,24.96-29.98219,69.33331-29.98415,40.54608,0,60.24826,22.03308Q1264.33554,136.56362,1264.338,171.8146Zm-44.75585-1.72433q0-44.06421-37.4878-44.06616-35.76838,0-42.46068,45.5989Z"/><path class="cls-1" d="M1425,100.35078l-11.09333,44.83253a75.66979,75.66979,0,0,0-28.68965-5.74776q-28.11585,0-37.10527,25.29015,0,76.44521,1.14758,117.63749H1298.383q3.24954-57.66675,3.25149-94.26327a377.84854,377.84854,0,0,0-9.56321-86.408l48.77239-5.36458q3.24954,21.07756,3.2515,24.71537h3.06023q17.59435-27.01448,46.85975-27.01447Q1407.78622,94.02825,1425,100.35078Z"/></svg>